<svg xmlns="http://www.w3.org/2000/svg" xmlns:xlink="http://www.w3.org/1999/xlink" id="visual" version="1.1" viewBox="0 0 960 50"><path d="M0 50L22.8 48.7C45.7 47.3 91.3 44.7 137 44C182.7 43.3 228.3 44.7 274 44C319.7 43.3 365.3 40.7 411.2 40.3C457 40 503 42 548.8 43.3C594.7 44.7 640.3 45.3 686 45.8C731.7 46.3 777.3 46.7 823 44.7C868.7 42.7 914.3 38.3 937.2 36.2L960 34L960 0L937.2 0C914.3 0 868.7 0 823 0C777.3 0 731.7 0 686 0C640.3 0 594.7 0 548.8 0C503 0 457 0 411.2 0C365.3 0 319.7 0 274 0C228.3 0 182.7 0 137 0C91.3 0 45.7 0 22.8 0L0 0Z" fill="#c9772f"/><path d="M0 29L22.8 27.7C45.7 26.3 91.3 23.7 137 24.5C182.7 25.3 228.3 29.7 274 30.5C319.7 31.3 365.3 28.7 411.2 28.3C457 28 503 30 548.8 31C594.7 32 640.3 32 686 32.8C731.7 33.7 777.3 35.3 823 36.2C868.7 37 914.3 37 937.2 37L960 37L960 0L937.2 0C914.3 0 868.7 0 823 0C777.3 0 731.7 0 686 0C640.3 0 594.7 0 548.8 0C503 0 457 0 411.2 0C365.3 0 319.7 0 274 0C228.3 0 182.7 0 137 0C91.3 0 45.7 0 22.8 0L0 0Z" fill="#d94e4d"/><path d="M0 12L22.8 12.2C45.7 12.3 91.3 12.7 137 13.3C182.7 14 228.3 15 274 16.8C319.7 18.7 365.3 21.3 411.2 21.8C457 22.3 503 20.7 548.8 20.7C594.7 20.7 640.3 22.3 686 21.3C731.7 20.3 777.3 16.7 823 16.2C868.7 15.7 914.3 18.3 937.2 19.7L960 21L960 0L937.2 0C914.3 0 868.7 0 823 0C777.3 0 731.7 0 686 0C640.3 0 594.7 0 548.8 0C503 0 457 0 411.2 0C365.3 0 319.7 0 274 0C228.3 0 182.7 0 137 0C91.3 0 45.7 0 22.8 0L0 0Z" fill="#ce2b7b"/></svg>